<?xml version="1.0" encoding="utf-8"?>
<!-- Generator: Adobe Illustrator 16.0.0, SVG Export Plug-In . SVG Version: 6.00 Build 0)  -->
<!DOCTYPE svg PUBLIC "-//W3C//DTD SVG 1.1//EN" "http://www.w3.org/Graphics/SVG/1.1/DTD/svg11.dtd">
<svg version="1.1" id="Layer_1" xmlns="http://www.w3.org/2000/svg" xmlns:xlink="http://www.w3.org/1999/xlink" x="0px" y="0px"
	 width="54.2px" height="54.7px" viewBox="0 0 54.2 54.7" style="enable-background:new 0 0 54.2 54.7;" xml:space="preserve">
<style type="text/css">
<![CDATA[
	.st0{opacity:0.8;fill:#FFFFFF;}
	.st1{fill:#8ED839;}
	.st2{opacity:0.8;}
	.st3{fill:#FFFFFF;}
	.st4{fill:#69CE28;}
	.st5{fill:none;stroke:#FFFFFF;stroke-width:1.7204;stroke-miterlimit:10;}
	.st6{fill:none;stroke:#FFFFFF;stroke-width:1.3138;stroke-miterlimit:10;}
]]>
</style>
<g>
	<path class="st6" d="M27.1,49.7c12.3,0,22.3-10,22.3-22.3C49.4,15,39.4,5,27.1,5C14.7,5,4.7,15,4.7,27.3
		C4.7,39.7,14.7,49.7,27.1,49.7"/>
	<path class="st3" d="M22.5,24.1h2v-1.9c0-0.8,0-2.1,0.6-2.9c0.6-0.8,1.5-1.4,3-1.4c2.5,0,3.5,0.4,3.5,0.4l-0.5,2.9
		c0,0-0.8-0.2-1.6-0.2c-0.8,0-1.4,0.3-1.4,1v2.2h3.1L31,27h-2.9v9.8h-3.7V27h-2V24.1z"/>
</g>
</svg>
