<?xml version="1.0" encoding="utf-8"?>
<!-- Generator: Adobe Illustrator 16.0.0, SVG Export Plug-In . SVG Version: 6.00 Build 0)  -->
<!DOCTYPE svg PUBLIC "-//W3C//DTD SVG 1.1//EN" "http://www.w3.org/Graphics/SVG/1.1/DTD/svg11.dtd">
<svg version="1.1" id="Layer_1" xmlns="http://www.w3.org/2000/svg" xmlns:xlink="http://www.w3.org/1999/xlink" x="0px" y="0px"
	 width="54.2px" height="54.7px" viewBox="0 0 54.2 54.7" style="enable-background:new 0 0 54.2 54.7;" xml:space="preserve">
<style type="text/css">
<![CDATA[
	.st0{opacity:0.8;fill:#FFFFFF;}
	.st1{fill:#8ED839;}
	.st2{opacity:0.8;}
	.st3{fill:#FFFFFF;}
	.st4{fill:#69CE28;}
	.st5{fill:none;stroke:#FFFFFF;stroke-width:1.7204;stroke-miterlimit:10;}
	.st6{fill:none;stroke:#FFFFFF;stroke-width:1.3138;stroke-miterlimit:10;}
]]>
</style>
<g>
	<path class="st6" d="M27.1,49.7c12.3,0,22.3-10,22.3-22.3S39.4,5,27.1,5C14.7,5,4.7,15,4.7,27.3S14.7,49.7,27.1,49.7"/>
	<path class="st3" d="M25.8,37.2c-2.2,0-3.8-1.4-3.8-3c0-1.6,2-3,4.1-3c0.5,0,1,0.1,1.4,0.2c1.2,0.8,2,1.3,2.3,2.2
		c0,0.2,0.1,0.4,0.1,0.6C30,35.9,28.9,37.2,25.8,37.2 M26.4,27.5c-1.5,0-2.9-1.6-3.1-3.6c-0.3-1.9,0.7-3.4,2.2-3.3
		c1.5,0,2.9,1.6,3.1,3.5S27.9,27.6,26.4,27.5 M29.4,30.4C28.9,30,28,29.1,28,28.6c0-0.6,0.2-0.9,1.1-1.6c0.9-0.7,1.6-1.8,1.6-3
		c0-1.4-0.6-2.8-1.8-3.3h1.8l1.3-0.9h-5.7c-2.5,0-4.9,1.9-4.9,4.2c0,2.3,1.7,4.1,4.3,4.1c0.2,0,0.4,0,0.5,0
		c-0.2,0.3-0.3,0.7-0.3,1.1c0,0.6,0.3,1.1,0.8,1.6c-0.3,0-0.6,0-1,0c-3.2,0-5.6,2-5.6,4.1c0,2,2.7,3.3,5.8,3.3c3.6,0,5.6-2,5.6-4.1
		C31.4,32.4,30.9,31.4,29.4,30.4 M37.7,27.7h-2.2v-2.2h-1.8v2.2h-2.2v1.8h2.2v2.2h1.8v-2.2h2.2V27.7z"/>
</g>
</svg>
