<?xml version="1.0" encoding="utf-8"?>
<!-- Generator: Adobe Illustrator 16.0.0, SVG Export Plug-In . SVG Version: 6.00 Build 0)  -->
<!DOCTYPE svg PUBLIC "-//W3C//DTD SVG 1.1//EN" "http://www.w3.org/Graphics/SVG/1.1/DTD/svg11.dtd">
<svg version="1.1" id="Layer_1" xmlns="http://www.w3.org/2000/svg" xmlns:xlink="http://www.w3.org/1999/xlink" x="0px" y="0px"
	 width="54.2px" height="54.7px" viewBox="0 0 54.2 54.7" style="enable-background:new 0 0 54.2 54.7;" xml:space="preserve">
<style type="text/css">
<![CDATA[
	.st0{opacity:0.8;fill:#FFFFFF;}
	.st1{fill:#8ED839;}
	.st2{opacity:0.8;}
	.st3{fill:#FFFFFF;}
	.st4{fill:#69CE28;}
	.st5{fill:none;stroke:#FFFFFF;stroke-width:1.7204;stroke-miterlimit:10;}
	.st6{fill:none;stroke:#FFFFFF;stroke-width:1.3138;stroke-miterlimit:10;}
]]>
</style>
<g>
	<path class="st6" d="M27.1,49.7c12.3,0,22.3-10,22.3-22.3S39.4,5,27.1,5C14.7,5,4.7,15,4.7,27.3S14.7,49.7,27.1,49.7"/>
	<path class="st3" d="M32.7,18.1H21.4c-2,0-3.6,1.6-3.6,3.6v3.8V33c0,2,1.6,3.6,3.6,3.6h11.3c2,0,3.6-1.6,3.6-3.6v-7.5v-3.8
		C36.3,19.7,34.7,18.1,32.7,18.1z M33.8,20.2l0.4,0v0.4v2.7l-3.1,0l0-3.1L33.8,20.2z M24.5,25.4c0.6-0.8,1.5-1.4,2.6-1.4
		s2,0.5,2.6,1.4c0.4,0.5,0.6,1.2,0.6,1.9c0,1.8-1.5,3.2-3.2,3.2s-3.2-1.5-3.2-3.2C23.8,26.6,24.1,26,24.5,25.4z M34.5,33
		c0,1-0.8,1.8-1.8,1.8H21.4c-1,0-1.8-0.8-1.8-1.8v-7.5h2.8C22.2,26,22,26.7,22,27.3c0,2.8,2.3,5,5,5c2.8,0,5-2.3,5-5
		c0-0.7-0.1-1.3-0.4-1.9h2.8V33z"/>
</g>
</svg>
