<?xml version="1.0" encoding="utf-8"?>
<!-- Generator: Adobe Illustrator 16.0.0, SVG Export Plug-In . SVG Version: 6.00 Build 0)  -->
<!DOCTYPE svg PUBLIC "-//W3C//DTD SVG 1.1//EN" "http://www.w3.org/Graphics/SVG/1.1/DTD/svg11.dtd">
<svg version="1.1" id="Layer_1" xmlns="http://www.w3.org/2000/svg" xmlns:xlink="http://www.w3.org/1999/xlink" x="0px" y="0px"
	 width="114.2px" height="52.3px" viewBox="0 0 114.2 52.3" style="enable-background:new 0 0 114.2 52.3;" xml:space="preserve">
<style type="text/css">
<![CDATA[
	.st0{opacity:0.8;fill:#FFFFFF;}
	.st1{fill:#8ED839;}
	.st2{opacity:0.8;}
	.st3{fill:#FFFFFF;}
	.st4{fill:#69CE28;}
	.st5{fill:none;stroke:#FFFFFF;stroke-width:1.7204;stroke-miterlimit:10;}
	.st6{fill:none;stroke:#FFFFFF;stroke-width:1.3138;stroke-miterlimit:10;}
]]>
</style>
<g>
	<g>
		<path class="st3" d="M5.2,2.6c0.7,0,1.4,0.3,1.9,0.8c0.5,0.5,0.8,1.2,0.8,1.9c0,0.8-0.3,1.4-0.8,1.9S6,8,5.2,8
			C4.5,8,3.9,7.8,3.3,7.2C2.8,6.7,2.5,6,2.5,5.3c0-0.7,0.3-1.4,0.8-1.9S4.5,2.6,5.2,2.6z M3.1,9.5h4.2v16.8H3.1V9.5z"/>
		<path class="st3" d="M11.2,9.5h4.2v1.7c1-0.8,1.8-1.4,2.6-1.7c0.8-0.3,1.6-0.5,2.4-0.5c1.7,0,3.1,0.6,4.2,1.7c1,1,1.5,2.5,1.5,4.4
			v11.1h-4.2V19c0-2-0.1-3.3-0.3-4c-0.2-0.7-0.5-1.2-0.9-1.5c-0.4-0.3-1-0.5-1.7-0.5c-0.9,0-1.6,0.3-2.2,0.9c-0.6,0.6-1,1.4-1.3,2.4
			c-0.1,0.5-0.2,1.7-0.2,3.4v6.8h-4.2V9.5z"/>
		<path class="st3" d="M42.6,3h4.2v23.3h-4.2v-1.8c-0.8,0.8-1.7,1.3-2.5,1.7s-1.7,0.5-2.7,0.5c-2.2,0-4.1-0.8-5.6-2.5
			s-2.4-3.8-2.4-6.3c0-2.6,0.8-4.7,2.3-6.4s3.4-2.5,5.6-2.5c1,0,2,0.2,2.8,0.6c0.9,0.4,1.7,1,2.5,1.7V3z M38.2,13
			c-1.3,0-2.4,0.5-3.3,1.4c-0.9,0.9-1.3,2.1-1.3,3.6c0,1.5,0.4,2.7,1.3,3.6s2,1.4,3.2,1.4c1.3,0,2.4-0.5,3.3-1.4
			c0.9-0.9,1.3-2.1,1.3-3.6c0-1.5-0.4-2.7-1.3-3.6C40.6,13.4,39.5,13,38.2,13z"/>
		<path class="st3" d="M55.5,22.4c0.7,0.7,1.6,1,2.9,1c0.9,0,1.7-0.2,2.3-0.7c0.7-0.5,1.1-0.9,1.2-1.4h4c-0.6,2-1.6,3.4-2.9,4.2
			c-1.3,0.8-2.9,1.3-4.8,1.3c-1.3,0-2.5-0.2-3.5-0.6c-1-0.4-1.9-1-2.6-1.8s-1.3-1.7-1.7-2.7c-0.4-1.1-0.6-2.2-0.6-3.5
			c0-1.2,0.2-2.4,0.6-3.4c0.4-1.1,1-2,1.7-2.7c0.7-0.8,1.6-1.4,2.6-1.8s2.2-0.7,3.4-0.7c1.4,0,2.6,0.3,3.6,0.8s1.9,1.3,2.6,2.2
			s1.1,1.9,1.4,3.1c0.3,1.2,0.4,2.4,0.3,3.6H54.4C54.5,20.7,54.8,21.7,55.5,22.4z M60.6,13.8c-0.5-0.6-1.4-0.9-2.5-0.9
			c-0.7,0-1.3,0.1-1.8,0.4c-0.5,0.2-0.9,0.5-1.1,0.9c-0.3,0.4-0.5,0.7-0.6,1.1c-0.1,0.4-0.2,0.8-0.2,1.1h7.3
			C61.5,15.2,61.1,14.4,60.6,13.8z"/>
		<path class="st3" d="M74.5,22.4c0.7,0.7,1.6,1,2.9,1c0.9,0,1.7-0.2,2.3-0.7c0.7-0.5,1.1-0.9,1.2-1.4h4c-0.6,2-1.6,3.4-2.9,4.2
			c-1.3,0.8-2.9,1.3-4.8,1.3c-1.3,0-2.5-0.2-3.5-0.6c-1-0.4-1.9-1-2.6-1.8c-0.7-0.8-1.3-1.7-1.7-2.7s-0.6-2.2-0.6-3.5
			c0-1.2,0.2-2.4,0.6-3.4c0.4-1.1,1-2,1.7-2.7c0.7-0.8,1.6-1.4,2.6-1.8c1-0.4,2.2-0.7,3.4-0.7c1.4,0,2.6,0.3,3.6,0.8
			s1.9,1.3,2.6,2.2s1.1,1.9,1.4,3.1c0.3,1.2,0.4,2.4,0.3,3.6H73.4C73.5,20.7,73.8,21.7,74.5,22.4z M79.6,13.8
			c-0.5-0.6-1.4-0.9-2.5-0.9c-0.7,0-1.3,0.1-1.8,0.4c-0.5,0.2-0.9,0.5-1.1,0.9s-0.5,0.7-0.6,1.1c-0.1,0.4-0.2,0.8-0.2,1.1h7.3
			C80.5,15.2,80.1,14.4,79.6,13.8z"/>
		<path class="st3" d="M90.3,21.9c0.7,0,1.2,0.2,1.7,0.7c0.5,0.5,0.7,1,0.7,1.7S92.5,25.6,92,26s-1,0.7-1.7,0.7s-1.2-0.2-1.7-0.7
			s-0.7-1-0.7-1.7s0.2-1.2,0.7-1.7C89.1,22.2,89.6,21.9,90.3,21.9z"/>
	</g>
	<g>
		<path class="st1" d="M72.4,48.2c0.4-0.1,0.4,0.1,0.3,0.3c-0.7,1.2-2.3,1.4-3.6,1.2c-2.7-0.5-4.6-2.6-7.7-1.5
			c-0.2,0.1-0.4-0.1-0.3-0.2c0.4-0.6,1.2-1.2,2.5-1.3c0,0,0.1,0,0.2,0c-1.3-0.8-2-2.2-2.2-3.8c-0.7-5.2,3.3-10.3,5.9-11.6
			c1.4-0.7,2.6-0.6,3.5,0.1c3.1,0.9,3.1,5.8,1.7,9.5c-1.2,3.2-3.2,5.9-5.8,6.3C68.9,47.8,70.8,48.8,72.4,48.2z M70.5,32
			c-1.3-0.3-4.1,1.8-6,5.6c-1.9,3.9-1.4,8.1,0.4,8.6c1.7,0.5,4.3-1.8,5.9-5.8C72.5,36,72,32.3,70.5,32z"/>
		<path class="st1" d="M75.5,45.9c-1.8,0.1-2-1.7-1.7-3.4c0.3-1.7,1.3-4.3,2.6-6.7c0.2-0.3,0.4-0.3,0.6-0.1c0.6,0.7,0.7,1.9,0,3.4
			c-0.7,1.6-1.1,2.6-1.4,3.9c-0.4,1.3-0.2,2.1,0.4,2.1c1-0.1,2.1-1.9,3.1-4.3c1.2-2.7,1.7-4.5,2.4-5.7c0.2-0.4,0.4-0.4,0.6-0.2
			c0.4,0.4,0.8,1.5,0.3,2.8c-0.4,1.2-1.4,3.2-1.8,4.5c-0.5,1.5-0.2,2.5,0.7,2.3c1-0.2,2.1-2,2.8-3.8c0.1-0.2,0.3-0.3,0.4-0.1
			c0.1,0.2,0.2,0.8,0,1.6c-0.5,1.5-1.9,2.9-3.3,3.1c-1.6,0.2-2.4-0.7-2.4-2.2C78.1,44.4,76.9,45.9,75.5,45.9z"/>
		<path class="st1" d="M91.2,38.5c-0.2,2.2-1.5,4.8-3.2,5.7c-0.8,0.4-2.1,0.5-3.2-0.7c-1.3-1.3-1.2-3.5-0.3-5.6
			c0.7-1.8,2-3.4,3.5-3.7c0.8-0.1,1.2,0,1.8,0.6c0.7,0.7,1.4,0.8,1.5,2.6c0,0.2,0,0.4,0,0.6c0.1,0,0.3-0.1,0.5-0.1
			c0.2,0,0.2,0.1,0.1,0.2C91.7,38.3,91.5,38.5,91.2,38.5z M89.1,38.2c-0.6-0.3-1.3-1.1-1.4-2c-0.6,0.7-1.2,1.6-1.6,2.6
			c-0.8,2-0.9,4.3-0.2,4.8c0.8,0.5,2.2-0.6,3.1-3c0.3-0.7,0.5-1.5,0.6-2.1C89.4,38.4,89.2,38.3,89.1,38.2z M89.6,35.9
			c-0.2-0.8-0.7-0.6-0.7,0.2c0,0.7,0.3,1.4,0.8,1.7C89.8,36.9,89.8,36.3,89.6,35.9z"/>
		<path class="st1" d="M92.5,33c-0.3-0.3-0.2-0.5,0.2-0.5c0.7-0.1,1.4-0.2,2-0.4c0.6-1.5,1.1-2.7,1.5-3.3c0.2-0.3,0.4-0.4,0.6-0.1
			c0.4,0.7,0.5,1.5,0,2.8c1-0.1,1.4,0.2,1.6,0.5c0.2,0.3,0.1,0.5-0.2,0.5c-0.6,0-1.3,0.2-1.9,0.3c-0.7,1.8-1.8,4.3-2.5,6.5
			c-0.6,1.9-0.1,3.4,0.9,3.3c1.1-0.1,2.3-2,3-4c0.1-0.3,0.4-0.4,0.5-0.1c0.2,0.4,0.1,0.8-0.1,1.4c-0.2,0.8-1.6,3.1-3.5,3.3
			c-1.6,0.2-3.2-1.5-2.4-4.5c0.4-1.3,1.1-3.5,1.9-5.6C93.3,33.6,92.7,33.3,92.5,33z"/>
		<path class="st1" d="M102.8,26.7c0.4,0.7,0.6,1.9-0.2,3.9c-1.2,2.9-3.3,8-4.5,12.2c-0.1,0.3-0.2,0.3-0.4,0.1
			c-0.4-0.3-0.8-1.1-0.5-2.7c0.8-3.5,3.4-10.3,5-13.4C102.4,26.4,102.6,26.4,102.8,26.7z"/>
		<path class="st1" d="M108.1,31.6c0.8,0,1.7,1.1,1.3,2.5c-0.4,1.1-1.3,3.1-1.7,4.5c-0.5,1.5-0.2,2.6,0.7,2.5c1-0.2,2-2,2.7-3.8
			c0.1-0.2,0.3-0.3,0.4-0.1c0.2,0.2,0.2,0.8,0,1.6c-0.5,1.5-1.9,2.9-3.3,3.1c-2.1,0.3-2.8-1.2-2.3-3.4c0.5-2.5,2.3-5.4,1.9-5.5
			c-0.3-0.1-1.6,0.8-2.9,2.7c-1.2,1.8-2,4.3-2.8,6.7c-0.1,0.2-0.2,0.4-0.5,0.2c-0.6-0.4-0.8-1.2-0.6-2.5c0.3-1.6,1.7-5.3,3-7.8
			c0.1-0.3,0.3-0.3,0.5-0.1c0.4,0.6,0.5,1.4,0.4,2.3C105.8,33.1,107.2,31.6,108.1,31.6z"/>
	</g>
</g>
</svg>
