<?xml version="1.0" encoding="utf-8"?>
<!-- Generator: Adobe Illustrator 16.0.0, SVG Export Plug-In . SVG Version: 6.00 Build 0)  -->
<!DOCTYPE svg PUBLIC "-//W3C//DTD SVG 1.1//EN" "http://www.w3.org/Graphics/SVG/1.1/DTD/svg11.dtd">
<svg version="1.1" id="Layer_1" xmlns="http://www.w3.org/2000/svg" xmlns:xlink="http://www.w3.org/1999/xlink" x="0px" y="0px"
	 width="54.2px" height="54.7px" viewBox="0 0 54.2 54.7" style="enable-background:new 0 0 54.2 54.7;" xml:space="preserve">
<style type="text/css">
<![CDATA[
	.st0{opacity:0.8;fill:#FFFFFF;}
	.st1{fill:#8ED839;}
	.st2{opacity:0.8;}
	.st3{fill:#FFFFFF;}
	.st4{fill:#69CE28;}
	.st5{fill:none;stroke:#FFFFFF;stroke-width:1.7204;stroke-miterlimit:10;}
	.st6{fill:none;stroke:#FFFFFF;stroke-width:1.3138;stroke-miterlimit:10;}
]]>
</style>
<g>
	<path class="st6" d="M27.4,49.7c12.3,0,22.3-10,22.3-22.3C49.8,15,39.8,5,27.4,5C15.1,5,5.1,15,5.1,27.3
		C5.1,39.7,15.1,49.7,27.4,49.7"/>
	<path class="st3" d="M38.4,21.6c-0.8,0.4-1.7,0.6-2.6,0.7c0.9-0.6,1.6-1.4,2-2.5C37,20.3,36,20.7,35,20.9c-0.8-0.9-2-1.4-3.3-1.4
		c-2.5,0-4.5,2-4.5,4.5c0,0.4,0,0.7,0.1,1c-3.8-0.2-7.1-2-9.3-4.7c-0.4,0.7-0.6,1.4-0.6,2.3c0,1.6,0.8,3,2,3.8c-0.7,0-1.4-0.2-2-0.6
		v0.1c0,2.2,1.6,4,3.6,4.4c-0.4,0.1-0.8,0.2-1.2,0.2c-0.3,0-0.6,0-0.8-0.1c0.6,1.8,2.2,3.1,4.2,3.1c-1.5,1.2-3.5,1.9-5.6,1.9
		c-0.4,0-0.7,0-1.1-0.1c2,1.3,4.4,2,6.9,2c8.3,0,12.9-6.9,12.9-12.9c0-0.2,0-0.4,0-0.6C37.1,23.3,37.8,22.5,38.4,21.6"/>
</g>
</svg>
